<?xml version="1.0" encoding="utf-8"?>
<!-- Generator: Adobe Illustrator 24.1.3, SVG Export Plug-In . SVG Version: 6.00 Build 0)  -->
<svg version="1.1" id="Layer_1" xmlns="http://www.w3.org/2000/svg" xmlns:xlink="http://www.w3.org/1999/xlink" x="0px" y="0px"
	 viewBox="0 0 600 250" style="enable-background:new 0 0 600 250;" xml:space="preserve">
<style type="text/css">
	.st0{fill-rule:evenodd;clip-rule:evenodd;fill:#1B4583;}
	.st1{fill:#1B4583;}
	.st2{fill:#1B4583;stroke:#1B4583;stroke-miterlimit:10;}
</style>
<g>
	<g>
		<polygon class="st0" points="46.02,177.16 46.02,185.63 27.93,192.46 27.93,183.99 		"/>
		<polygon class="st0" points="46.02,166.62 46.02,175.08 27.93,181.91 27.93,173.45 		"/>
		<polygon class="st0" points="46.02,156.09 46.02,164.54 27.93,171.37 27.93,162.91 		"/>
		<polygon class="st0" points="141.42,216.27 141.42,114.89 128.65,106.73 128.65,122.99 110.21,116.02 110.21,74.45 97.45,66.65 
			97.45,131.91 79.71,142.55 79.71,123.09 46.02,143.61 46.02,154.01 27.93,160.83 27.93,132.26 79.71,100.74 79.71,35.44 
			129.01,65.24 129.01,85.45 159.5,104.6 159.5,197.53 176.88,216.27 		"/>
		<polygon class="st0" points="97.79,169.5 97.79,216.33 10.2,216.33 27.93,198.23 27.93,194.52 45.76,187.8 46.02,187.7 
			46.02,197.87 79.35,197.87 79.35,179.79 62.33,169.86 62.69,147.87 		"/>
		<polygon class="st0" points="46.02,187.65 46.02,187.7 45.76,187.8 		"/>
		<polygon class="st0" points="128.65,209.38 128.65,216.33 110.21,216.33 110.21,202.43 		"/>
		<polygon class="st0" points="128.65,198.84 128.65,207.31 110.21,200.35 110.21,191.89 		"/>
		<polygon class="st0" points="128.65,188.3 128.65,196.76 110.21,189.81 110.21,181.34 		"/>
		<polygon class="st0" points="128.65,177.77 128.65,186.24 110.21,179.27 110.21,170.8 		"/>
		<polygon class="st0" points="128.65,167.23 128.65,175.69 110.21,168.72 110.21,160.27 		"/>
		<polygon class="st0" points="128.65,156.69 128.65,165.15 110.21,158.2 110.21,149.73 		"/>
		<polygon class="st0" points="128.65,146.14 128.65,154.61 110.21,147.65 110.21,139.19 		"/>
		<polygon class="st0" points="128.65,135.6 128.65,144.08 110.21,137.11 110.21,128.65 		"/>
		<polygon class="st0" points="128.65,125.07 128.65,133.54 110.21,126.57 110.21,118.1 		"/>
		<g>
			<g>
				<polygon class="st1" points="46.02,187.65 46.02,187.7 45.76,187.8 				"/>
			</g>
		</g>
	</g>
	<g>
		<path class="st1" d="M226.51,201.74v5.56c0,5.62-3.08,8.7-8.7,8.7h-10.89c-5.62,0-8.7-3.08-8.7-8.7v-24.31
			c0-5.62,3.08-8.7,8.7-8.7h10.89c5.62,0,8.7,3.08,8.7,8.7v4.25h-7.56v-4.09c0-1.54-0.76-2.31-2.3-2.31h-8.4
			c-1.54,0-2.31,0.78-2.31,2.31v23.95c0,1.54,0.78,2.31,2.31,2.31h8.4c1.54,0,2.3-0.78,2.3-2.31v-5.38h7.56V201.74z"/>
		<path class="st1" d="M241.34,215.99c-5.62,0-8.7-3.08-8.7-8.7v-24.31c0-5.62,3.08-8.7,8.7-8.7H253c5.62,0,8.7,3.08,8.7,8.7v24.31
			c0,5.62-3.08,8.7-8.7,8.7H241.34z M240.33,207.06c0,1.54,0.83,2.37,2.31,2.37h9.05c1.54,0,2.31-0.83,2.31-2.31v-23.95
			c0-1.54-0.78-2.31-2.31-2.31h-9.05c-1.54,0-2.31,0.78-2.31,2.31V207.06z"/>
		<path class="st1" d="M276.71,189.13v26.61h-7.22v-41.23h7.09l14.73,26.56v-26.56h7.22v41.23h-7.04L276.71,189.13z"/>
		<path class="st1" d="M305.93,182.69c0-5.44,3.08-8.4,8.7-8.4h10.82c5.44,0,8.52,2.95,8.52,8.4v4.2h-7.56v-4.09
			c0-1.36-0.78-2.06-2.31-2.06h-8.28c-1.54,0-2.31,0.71-2.31,2.06v4.67c0,1.36,0.29,1.9,1.66,2.24l13.48,3.49
			c3.78,1.01,5.74,3.49,5.74,6.98v7.4c0,5.44-3.08,8.4-8.7,8.4h-11.6c-5.5,0-8.52-2.95-8.52-8.4v-3.85h7.56v3.73
			c0,1.36,0.78,2.06,2.31,2.06h8.99c1.66,0,2.3-0.78,2.3-2.06v-5.74c0-1.25-0.47-1.77-1.72-2.06l-13.78-3.6
			c-2.78-0.71-5.32-2.78-5.32-7.4v-5.97H305.93z"/>
		<path class="st1" d="M356.44,181.21v34.54h-7.69v-34.54h-10.17v-6.68h27.97v6.68H356.44z"/>
		<path class="st1" d="M386.96,199.84h-7.27v15.9H372v-41.23h19.46c5.62,0,8.7,3.08,8.7,8.7v7.92c0,4.38-1.9,7.22-5.38,8.28
			l5.5,16.32h-8.22L386.96,199.84z M379.67,181.03v12.3h10.53c1.54,0,2.24-0.78,2.24-2.31v-7.69c0-1.48-0.71-2.31-2.24-2.31h-10.53
			V181.03z"/>
		<path class="st1" d="M436.17,174.53v32.76c0,5.62-3.08,8.7-8.7,8.7h-11.65c-5.62,0-8.7-3.08-8.7-8.7v-32.76h7.69V207
			c0,1.54,0.78,2.31,2.3,2.31h9.05c1.54,0,2.3-0.78,2.3-2.31v-32.47H436.17z"/>
		<path class="st1" d="M472.06,201.74v5.56c0,5.62-3.08,8.7-8.7,8.7h-10.89c-5.62,0-8.7-3.08-8.7-8.7v-24.31
			c0-5.62,3.08-8.7,8.7-8.7h10.89c5.62,0,8.7,3.08,8.7,8.7v4.25h-7.56v-4.09c0-1.54-0.76-2.31-2.3-2.31h-8.4
			c-1.54,0-2.31,0.78-2.31,2.31v23.95c0,1.54,0.78,2.31,2.31,2.31h8.4c1.54,0,2.3-0.78,2.3-2.31v-5.38h7.56V201.74z"/>
		<path class="st1" d="M493.7,181.21v34.54h-7.69v-34.54h-10.17v-6.68h27.97v6.68H493.7z"/>
		<path class="st1" d="M509.26,174.53h7.69v41.23h-7.69V174.53z"/>
		<path class="st1" d="M533.45,215.99c-5.62,0-8.7-3.08-8.7-8.7v-24.31c0-5.62,3.08-8.7,8.7-8.7h11.65c5.62,0,8.7,3.08,8.7,8.7
			v24.31c0,5.62-3.08,8.7-8.7,8.7H533.45z M532.44,207.06c0,1.54,0.83,2.37,2.31,2.37h9.05c1.54,0,2.31-0.83,2.31-2.31v-23.95
			c0-1.54-0.78-2.31-2.31-2.31h-9.05c-1.54,0-2.31,0.78-2.31,2.31V207.06z"/>
		<path class="st1" d="M568.82,189.13v26.61h-7.22v-41.23h7.09l14.73,26.56v-26.56h7.22v41.23h-7.04L568.82,189.13z"/>
	</g>
	<g>
		<g>
			<path class="st2" d="M226.38,163.83h-15.29c-7.9,0-12.22-4.32-12.22-12.22v-34.16c0-7.9,4.32-12.22,12.22-12.22h15.29
				c7.9,0,12.22,4.32,12.22,12.22v5.98h-10.64v-5.74c0-2.16-1.08-3.24-3.24-3.24h-11.8c-2.16,0-3.24,1.08-3.24,3.24v33.66
				c0,2.16,1.08,3.24,3.24,3.24h11.8c2.16,0,3.24-1.08,3.24-3.24v-8.81h-8.48v-8.56h19.12v17.62
				C238.6,159.51,234.28,163.83,226.38,163.83z"/>
			<path class="st2" d="M259.05,125.36v38.15h-10.06v-57.94h10.47l14.13,27.93l13.88-27.93h10.47v57.94h-10.14v-38.4l-10.72,20.86
				h-7.15L259.05,125.36z"/>
		</g>
	</g>
</g>
</svg>
